<svg id="Layer_1" data-name="Layer 1" xmlns="http://www.w3.org/2000/svg" viewBox="0 0 1080 1080"><defs><style>.cls-1{fill:#fff;}.cls-2{fill:#3975fb;}.cls-3{fill:#231f20;}</style></defs><rect class="cls-1" y="-4.24" width="1080" height="1080"/><path class="cls-2" d="M350.55,609.52V468.41h17.56V593.87H433.7v15.65Z"/><path class="cls-2" d="M478.38,468V609.26H460.79V483.64H395.12V468Z"/><circle class="cls-2" cx="395.4" cy="505.93" r="14.14"/><circle class="cls-2" cx="395.4" cy="537.99" r="14.14"/><circle class="cls-2" cx="395.4" cy="570.04" r="14.14"/><circle class="cls-2" cx="432.36" cy="505.93" r="14.14"/><circle class="cls-2" cx="432.36" cy="537.99" r="14.14"/><circle class="cls-2" cx="432.36" cy="570.04" r="14.14"/><path class="cls-2" d="M251.74,468.27q20.29,0,34.17,13.67t13.87,33.56q0,19.9-13.87,33.57t-34.17,13.67H227V609H199.28V468.27Zm0,68.54a19.39,19.39,0,0,0,14.67-6.13,22.79,22.79,0,0,0,0-30.45,19.56,19.56,0,0,0-14.67-6H227v42.61Z"/><path class="cls-3" d="M311.43,468.27h27.74V609H311.43Z"/><path class="cls-3" d="M575.34,536q18.49,10.65,18.5,32.16,0,17.88-12.67,29.34T550,609h-59.7V468.27H545.8q18.09,0,30.45,11.15t12.36,28.45Q588.61,525.35,575.34,536ZM545.8,494.2H518.06v30.95H545.8a14.42,14.42,0,0,0,10.75-4.42,15.18,15.18,0,0,0,4.32-11.05,15.4,15.4,0,0,0-4.22-11.06A14.32,14.32,0,0,0,545.8,494.2ZM550,583a15.64,15.64,0,0,0,11.66-4.72,16.41,16.41,0,0,0,4.62-12,16.15,16.15,0,0,0-4.62-11.76A15.64,15.64,0,0,0,550,549.88h-32V583Z"/><path class="cls-3" d="M723.88,590.58q-21.3,21.21-51.86,21.2t-51.75-21.2q-21.21-21.21-21.21-52t21.21-52q21.19-21.21,51.75-21.2t51.86,21.2q21.3,21.21,21.31,52T723.88,590.58Zm-84.22-18.9q13.07,13,32.36,13t32.36-13q13.07-13,13.07-33.06t-13.07-33.17Q691.32,492.4,672,492.39t-32.36,13.06q-13.06,13.08-13.06,33.17T639.66,571.68Z"/><path class="cls-3" d="M857.75,609H826.19l-27.34-45.89L771.52,609H740.16l43-72.21-40.8-68.49h31.36l25.15,42.12L824,468.27h31.36l-40.76,68.41Z"/></svg>